<svg width="48" height="48" viewBox="0 0 48 48" fill="none" xmlns="http://www.w3.org/2000/svg">
  <defs>
    <!-- メイングラデーション -->
    <linearGradient id="mainGradient" x1="0%" y1="0%" x2="100%" y2="100%">
      <stop offset="0%" style="stop-color:#6366f1;stop-opacity:1" />
      <stop offset="100%" style="stop-color:#ec4899;stop-opacity:1" />
    </linearGradient>

    <!-- ネオングロー -->
    <filter id="glow">
      <feGaussianBlur stdDeviation="2" result="coloredBlur"/>
      <feMerge>
        <feMergeNode in="coloredBlur"/>
        <feMergeNode in="SourceGraphic"/>
      </feMerge>
    </filter>

    <!-- 光沢 -->
    <linearGradient id="shine" x1="0%" y1="0%" x2="0%" y2="100%">
      <stop offset="0%" style="stop-color:#ffffff;stop-opacity:0.4" />
      <stop offset="100%" style="stop-color:#ffffff;stop-opacity:0" />
    </linearGradient>
  </defs>

  <!-- 背景円形 -->
  <circle cx="24" cy="24" r="22" fill="url(#mainGradient)" opacity="0.95"/>

  <!-- 上部光沢エフェクト -->
  <ellipse cx="24" cy="14" rx="16" ry="10" fill="url(#shine)"/>

  <!-- AI アイコン - モダンで幾何学的なデザイン -->
  <g transform="translate(24, 24)" filter="url(#glow)">
    <!-- 脳のニューロンネットワークを抽象化したデザイン -->

    <!-- 中央コア -->
    <circle cx="0" cy="0" r="3" fill="white" opacity="0.9"/>

    <!-- ニューロン接続線 - 左上 -->
    <line x1="0" y1="0" x2="-8" y2="-6" stroke="white" stroke-width="1.5" opacity="0.7"/>
    <circle cx="-8" cy="-6" r="2" fill="white" opacity="0.8"/>

    <!-- ニューロン接続線 - 右上 -->
    <line x1="0" y1="0" x2="8" y2="-6" stroke="white" stroke-width="1.5" opacity="0.7"/>
    <circle cx="8" cy="-6" r="2" fill="white" opacity="0.8"/>

    <!-- ニューロン接続線 - 左下 -->
    <line x1="0" y1="0" x2="-6" y2="8" stroke="white" stroke-width="1.5" opacity="0.7"/>
    <circle cx="-6" cy="8" r="2" fill="white" opacity="0.8"/>

    <!-- ニューロン接続線 - 右下 -->
    <line x1="0" y1="0" x2="6" y2="8" stroke="white" stroke-width="1.5" opacity="0.7"/>
    <circle cx="6" cy="8" r="2" fill="white" opacity="0.8"/>

    <!-- 外部接続ノード -->
    <circle cx="-12" cy="0" r="1.5" fill="white" opacity="0.6"/>
    <circle cx="12" cy="0" r="1.5" fill="white" opacity="0.6"/>
    <circle cx="0" cy="-10" r="1.5" fill="white" opacity="0.6"/>
    <circle cx="0" cy="10" r="1.5" fill="white" opacity="0.6"/>

    <!-- 接続線（薄く） -->
    <line x1="-8" y1="-6" x2="0" y2="-10" stroke="white" stroke-width="1" opacity="0.3"/>
    <line x1="8" y1="-6" x2="0" y2="-10" stroke="white" stroke-width="1" opacity="0.3"/>
    <line x1="-6" y1="8" x2="-12" y2="0" stroke="white" stroke-width="1" opacity="0.3"/>
    <line x1="6" y1="8" x2="12" y2="0" stroke="white" stroke-width="1" opacity="0.3"/>
  </g>

  <!-- パルスアニメーション用の円 -->
  <circle cx="24" cy="24" r="22" fill="none" stroke="white" stroke-width="1" opacity="0.2">
    <animate attributeName="r" values="22;24;22" dur="3s" repeatCount="indefinite"/>
    <animate attributeName="opacity" values="0.2;0;0.2" dur="3s" repeatCount="indefinite"/>
  </circle>
</svg>
